<mxfile host="app.diagrams.net" modified="2024-07-18T13:35:50.539Z" agent="Mozilla/5.0 (Macintosh; Intel Mac OS X 10_15_7) AppleWebKit/537.36 (KHTML, like Gecko) Chrome/126.0.0.0 Safari/537.36" etag="5qiHRjrI1TbRVKomcVpp" version="24.7.1" type="device">
  <diagram name="Page-1" id="vtT_lSOkQyAgZ53lPYPZ">
    <mxGraphModel dx="248" dy="157" grid="1" gridSize="10" guides="1" tooltips="1" connect="1" arrows="1" fold="1" page="1" pageScale="1" pageWidth="850" pageHeight="1100" math="0" shadow="0">
      <root>
        <mxCell id="0" />
        <mxCell id="1" parent="0" />
        <mxCell id="Nn9Nflq3pPzsIlSAH6j6-3" value="MAP" style="rounded=0;whiteSpace=wrap;html=1;" vertex="1" parent="1">
          <mxGeometry x="40" y="40" width="120" height="20" as="geometry" />
        </mxCell>
        <mxCell id="Nn9Nflq3pPzsIlSAH6j6-4" value="size x size" style="rounded=0;whiteSpace=wrap;html=1;" vertex="1" parent="1">
          <mxGeometry x="40" y="60" width="120" height="20" as="geometry" />
        </mxCell>
        <mxCell id="Nn9Nflq3pPzsIlSAH6j6-5" value="coordinate" style="rounded=0;whiteSpace=wrap;html=1;" vertex="1" parent="1">
          <mxGeometry x="40" y="80" width="120" height="20" as="geometry" />
        </mxCell>
        <mxCell id="Nn9Nflq3pPzsIlSAH6j6-6" value="blocks" style="rounded=0;whiteSpace=wrap;html=1;" vertex="1" parent="1">
          <mxGeometry x="40" y="100" width="120" height="20" as="geometry" />
        </mxCell>
      </root>
    </mxGraphModel>
  </diagram>
</mxfile>
